<svg id="Layer_1" data-name="Layer 1" xmlns="http://www.w3.org/2000/svg" viewBox="0 0 160.33 140.72"><defs><style>.cls-1{fill:#fff;}</style></defs><title>logo</title><g id="Logo"><path class="cls-1" d="M77.6,66.6a9.5,9.5,0,1,1-6.52-17.84l51.95-19a9.37,9.37,0,0,1,12.18,5.66,9.15,9.15,0,0,1-5.64,11.89Z" transform="translate(-20.3 -29.16)"/><path class="cls-1" d="M77.6,94.83A9.5,9.5,0,0,1,71.08,77L123,58a9.33,9.33,0,0,1,12.18,5.64,9.13,9.13,0,0,1-5.64,11.88Z" transform="translate(-20.3 -29.16)"/><path class="cls-1" d="M77.6,123.05a9.5,9.5,0,1,1-6.52-17.84l51.95-19a9.33,9.33,0,0,1,12.18,5.63,9.13,9.13,0,0,1-5.64,11.89Z" transform="translate(-20.3 -29.16)"/><polygon class="cls-1" points="0 117.37 17.23 117.37 17.23 122.11 5.96 122.11 5.96 125.98 16.93 125.98 16.93 131.02 5.96 131.02 5.96 135.18 17.52 135.18 17.52 140.25 0 140.25 0 117.37"/><rect class="cls-1" x="44.54" y="117.37" width="6.25" height="22.88"/><path class="cls-1" d="M93.65,147.12l-.3,4.75c-5-2.66-12.77-1.77-12.77,5.66-.3,7.73,7.73,8.91,13.07,6.23l.29,5c-9.2,2.68-19.91,0-19.91-11.27C74,146.82,85,143.84,93.65,147.12Z" transform="translate(-20.3 -29.16)"/><path class="cls-1" d="M112.05,146.82l-.29,4.75c-3.27-1.77-9.2-1.77-9.2.89,0,4.16,10.68,1.2,10.68,9.82,0,8.32-10.09,8.61-16.63,6.52l.32-5c4.13,1.8,10.09,2.39,10.09-.89,0-3.86-10.7-1.77-10.7-9.82C96.3,146.23,104.62,144.43,112.05,146.82Z" transform="translate(-20.3 -29.16)"/><path class="cls-1" d="M130.75,146.82l-.29,4.75c-3.27-1.77-9.21-1.77-9.21.89,0,4.16,10.68,1.2,10.68,9.82,0,8.32-10.08,8.61-16.61,6.52l.3-5c4.16,1.8,10.09,2.39,10.09-.89,0-3.86-10.68-1.77-10.68-9.82C115,146.23,123.32,144.43,130.75,146.82Z" transform="translate(-20.3 -29.16)"/><polygon class="cls-1" points="139.28 117.37 146.97 117.37 154.41 131.93 154.41 117.37 160.34 117.37 160.34 140.25 152.93 140.25 144.91 125.09 144.91 140.25 139.28 140.25 139.28 117.37"/><path class="cls-1" d="M140.25,157.82c0,3.57,1.5,7.43,4.75,7.43,3.57,0,5-3.86,5-7.43,0-3-1.47-7.43-5-7.43C141.75,150.39,140.25,154.25,140.25,157.82ZM145,145.93c6.55,0,11.59,3.57,11.59,11.89,0,8-5,11.88-11.59,11.88-6.23,0-11.27-3.86-11.27-11.88C133.73,149.5,138.77,145.93,145,145.93Z" transform="translate(-20.3 -29.16)"/><path class="cls-1" d="M42.27,146.53h11c3.25,0,7.41,1.18,7.41,5.93a5.47,5.47,0,0,1-4.16,5.66,3.22,3.22,0,0,1,2.09,2.07c0,.3,3.27,8.93,3.27,9.23H55.33L53,162.27a2.27,2.27,0,0,0-2.09-1.5c-1.18,0-2.66-.3-2.66,0v8.64h-6Zm6,9.5h3.25a2.72,2.72,0,0,0,3-2.66c0-1.5-1.18-2.39-3-2.39H48.22Z" transform="translate(-20.3 -29.16)"/></g></svg>