<svg id="Layer_1" data-name="Layer 1" xmlns="http://www.w3.org/2000/svg" viewBox="0 0 60 60"><defs><style>.cls-1{fill:#fff;}</style></defs><title>mood-sad</title><path class="cls-1" d="M40,10A30,30,0,1,0,70,40,30,30,0,0,0,40,10Zm0,54A24,24,0,1,1,64,40,24,24,0,0,1,40,64ZM52.54,27.28l-3.18,3.18-3.18-3.18L43,30.46l3.18,3.18L43,36.82,46.18,40l3.18-3.18L52.54,40l3.18-3.18-3.18-3.18,3.18-3.18ZM27.46,40l3.18-3.18L33.82,40,37,36.82l-3.18-3.18L37,30.46l-3.18-3.18-3.18,3.18-3.18-3.18-3.18,3.18,3.18,3.18-3.18,3.18ZM40,46A16.49,16.49,0,0,0,24.67,56.5H55.33A16.49,16.49,0,0,0,40,46Z" transform="translate(-10 -10)"/></svg>