<svg id="Layer_1" data-name="Layer 1" xmlns="http://www.w3.org/2000/svg" viewBox="0 0 29.13 29"><defs><style>.cls-1{fill:#fff;}</style></defs><title>weather</title><path class="cls-1" d="M18.47,15.68l-2.38-2.37-1.87,1.87,2.37,2.37Zm-3.65,7.49h-4v2.65h4ZM26.74,10H24.09v3.91h2.65Zm9.87,5.18-1.87-1.87-2.37,2.37,1.87,1.87ZM32.35,33.32l2.37,2.38,1.87-1.87L34.2,31.47ZM36,23.18v2.65h4V23.18ZM25.41,16.55a7.95,7.95,0,1,0,7.95,7.95A8,8,0,0,0,25.41,16.55ZM24.09,39h2.65V35.09H24.09Zm-9.87-5.18,1.87,1.87,2.37-2.38-1.87-1.87Z" transform="translate(-10.85 -10)"/></svg>